{"title":"Dante s.Inferno.2010.DvDRiP.XViD.Optional MultiSub.Zen_Bud","uid":5782299,"size":1519876689,"categoryP":"video","categoryS":"movies","magnet":"?xt=urn:btih:f68b2563e7dce52bb108e9a666ee203ba6885acb&amp;dn=Dante+s.Inferno.2010.DvDRiP.XViD.Optional+MultiSub.Zen_Bud&amp;tr=udp%3A%2F%2Ftracker.openbittorrent.com%3A80&amp;tr=udp%3A%2F%2Fopen.demonii.com%3A1337&amp;tr=udp%3A%2F%2Ftracker.coppersurfer.tk%3A6969&amp;tr=udp%3A%2F%2Fexodus.desync.com%3A6969","seeders":0,"leechers":0,"uploader":"Zen_Bud","files":-1,"time":1282466016,"description":"General\nComplete name                    : DanteÃ‚Â´s.Inferno.2010.avi\nFormat                           : AVI\nFile size                        : 1.37 GiB\nDuration                         : 1h 24mn\nOverall bit rate                 : 2 318 Kbps\n\nVideo\n\nFormat                           : MPEG-4 Visual\nCodec ID/Hint                    : XviD\nDuration                         : 1h 24mn\nBit rate                         : 1 859 Kbps\nWidth                            : 720 pixels\nHeight                           : 576 pixels\nDisplay aspect ratio             : 16:9\nStream size                      : 1.10 GiB (80%)\nWriting library                  : XviD 1.1.2 (UTC 2006-11-01)\n\nAudio\n\nFormat                           : AC-3\nDuration                         : 1h 24mn\nBit rate                         : 448 Kbps\nChannel(s)                       : 6 channels\nChannel positions                : Front: L C R, Side: L R, LFE\nSampling rate                    : 48.0 KHz\nStream size                      : 271 MiB (19%)\nLanguage.........................: English\n\n\nText......: English, French, Italian, German, Spanish, Portuguese,\n            Dutch, Norwegian, Swedish, Finnish, Danish, Turkish\n","torrent":{"xt":"urn:btih:f68b2563e7dce52bb108e9a666ee203ba6885acb","amp;dn":"Dante+s.Inferno.2010.DvDRiP.XViD.Optional+MultiSub.Zen_Bud","amp;tr":["udp%3A%2F%2Ftracker.openbittorrent.com%3A80","udp%3A%2F%2Fopen.demonii.com%3A1337","udp%3A%2F%2Ftracker.coppersurfer.tk%3A6969","udp%3A%2F%2Fexodus.desync.com%3A6969"],"infoHash":"f68b2563e7dce52bb108e9a666ee203ba6885acb","infoHashBuffer":{"type":"Buffer","data":[246,139,37,99,231,220,229,43,177,8,233,166,102,238,32,59,166,136,90,203]},"announce":[],"urlList":[]}}